<svg width="100" height="100" viewBox="0 0 100 100" fill="none" xmlns="http://www.w3.org/2000/svg">
<path d="M50 6.25C44.3167 6.2628 38.7706 7.99712 34.0924 11.2245C29.4143 14.4518 25.8236 19.0207 23.7936 24.3291C21.7636 29.6376 21.3895 35.4365 22.7206 40.9618C24.0516 46.4871 27.0254 51.4795 31.25 55.2812V93.75L50 81.25L68.75 93.75V55.2812C72.9747 51.4795 75.9484 46.4871 77.2795 40.9618C78.6105 35.4365 78.2364 29.6376 76.2064 24.3291C74.1764 19.0207 70.5858 14.4518 65.9077 11.2245C61.2295 7.99712 55.6834 6.2628 50 6.25ZM62.5 82.0625L53.4688 76.0625L50 73.75L46.5313 76.0625L37.5 82.0625V59.5312C41.3766 61.4871 45.658 62.506 50 62.506C54.342 62.506 58.6235 61.4871 62.5 59.5312V82.0625ZM65.2813 50C61.6672 53.5283 56.9435 55.6973 51.9121 56.1388C46.8806 56.5803 41.8514 55.267 37.6781 52.422C33.5048 49.5769 30.4446 45.3753 29.017 40.5305C27.5894 35.6856 27.8824 30.496 29.8461 25.8426C31.8099 21.1892 35.3234 17.3586 39.7903 15.0013C44.2573 12.6439 49.4023 11.905 54.3522 12.9098C59.302 13.9147 63.7516 16.6015 66.9457 20.5142C70.1397 24.4268 71.8814 29.3242 71.875 34.375C71.8714 37.2872 71.2863 40.1694 70.154 42.8525C69.0217 45.5356 67.3651 47.9656 65.2813 50Z" fill="white"/>
</svg>
